<svg width="48" height="48" viewBox="0 0 48 48" fill="none" xmlns="http://www.w3.org/2000/svg">
<path d="M24.0078 0C13.9881 0 11.0577 0.0103393 10.488 0.0576049C8.43181 0.228573 7.1523 0.552416 5.75834 1.24663C4.68408 1.78021 3.83686 2.39873 3.00071 3.26575C1.47792 4.84693 0.555014 6.79221 0.220923 9.10452C0.0584916 10.2271 0.0112389 10.456 0.00164072 16.1899C-0.0020509 18.1012 0.00164072 20.6166 0.00164072 23.9906C0.00164072 34.005 0.0127156 36.9332 0.0607065 37.5019C0.226829 39.5033 0.540616 40.7625 1.20511 42.1398C2.47502 44.7763 4.90041 46.7556 7.75772 47.4941C8.74707 47.7489 9.83979 47.8892 11.2426 47.9557C11.837 47.9815 17.8949 48 23.9565 48C30.0182 48 36.0798 47.9926 36.6594 47.9631C38.2837 47.8866 39.2269 47.76 40.2698 47.4904C41.6865 47.127 43.0069 46.4586 44.1387 45.5319C45.2705 44.6052 46.1863 43.4425 46.8224 42.125C47.4739 40.7809 47.8043 39.4737 47.9539 37.5768C47.9863 37.1633 48 30.5694 48 23.9843C48 17.3981 47.9852 10.8164 47.9527 10.4028C47.8014 8.4753 47.471 7.17919 46.7984 5.80923C46.2465 4.68778 45.6337 3.85029 44.744 2.99398C43.1566 1.47705 41.2148 0.553893 38.9005 0.22008C37.7794 0.0579741 37.5561 0.00997007 31.8193 0H24.0078Z" fill="url(#paint0_radial_1371_786)"/>
<path d="M24.0078 0C13.9881 0 11.0577 0.0103393 10.488 0.0576049C8.43181 0.228573 7.1523 0.552416 5.75834 1.24663C4.68408 1.78021 3.83686 2.39873 3.00071 3.26575C1.47792 4.84693 0.555014 6.79221 0.220923 9.10452C0.0584916 10.2271 0.0112389 10.456 0.00164072 16.1899C-0.0020509 18.1012 0.00164072 20.6166 0.00164072 23.9906C0.00164072 34.005 0.0127156 36.9332 0.0607065 37.5019C0.226829 39.5033 0.540616 40.7625 1.20511 42.1398C2.47502 44.7763 4.90041 46.7556 7.75772 47.4941C8.74707 47.7489 9.83979 47.8892 11.2426 47.9557C11.837 47.9815 17.8949 48 23.9565 48C30.0182 48 36.0798 47.9926 36.6594 47.9631C38.2837 47.8866 39.2269 47.76 40.2698 47.4904C41.6865 47.127 43.0069 46.4586 44.1387 45.5319C45.2705 44.6052 46.1863 43.4425 46.8224 42.125C47.4739 40.7809 47.8043 39.4737 47.9539 37.5768C47.9863 37.1633 48 30.5694 48 23.9843C48 17.3981 47.9852 10.8164 47.9527 10.4028C47.8014 8.4753 47.471 7.17919 46.7984 5.80923C46.2465 4.68778 45.6337 3.85029 44.744 2.99398C43.1566 1.47705 41.2148 0.553893 38.9005 0.22008C37.7794 0.0579741 37.5561 0.00997007 31.8193 0H24.0078Z" fill="url(#paint1_radial_1371_786)"/>
<path d="M24.0015 5.81836C19.0636 5.81836 18.4439 5.83995 16.5045 5.92821C14.5688 6.01684 13.2476 6.32328 12.0915 6.7729C10.8957 7.2373 9.88128 7.85851 8.87066 8.8695C7.85929 9.8801 7.23807 10.8945 6.77216 12.09C6.32139 13.2464 6.01457 14.568 5.92745 16.5028C5.84109 18.4422 5.81836 19.0623 5.81836 24.0002C5.81836 28.9381 5.84033 29.5559 5.92821 31.4953C6.01723 33.4309 6.32367 34.7521 6.77291 35.9081C7.23769 37.104 7.85891 38.1184 8.86991 39.129C9.88014 40.1403 10.8945 40.7631 12.0896 41.2275C13.2465 41.6771 14.5681 41.9835 16.5033 42.0721C18.4427 42.1604 19.0621 42.182 23.9996 42.182C28.9379 42.182 29.5557 42.1604 31.4951 42.0721C33.4308 41.9835 34.7535 41.6771 35.9103 41.2275C37.1058 40.7631 38.1187 40.1403 39.1289 39.129C40.1403 38.1184 40.7615 37.104 41.2274 35.9085C41.6744 34.7521 41.9812 33.4305 42.0721 31.4956C42.1593 29.5562 42.182 28.9381 42.182 24.0002C42.182 19.0623 42.1593 18.4426 42.0721 16.5032C41.9812 14.5676 41.6744 13.2464 41.2274 12.0903C40.7615 10.8945 40.1403 9.8801 39.1289 8.8695C38.1176 7.85813 37.1062 7.23692 35.9092 6.7729C34.7501 6.32328 33.4281 6.01684 31.4925 5.92821C29.5531 5.83995 28.9356 5.81836 23.9962 5.81836H24.0015ZM22.3704 9.09487C22.8545 9.09412 23.3947 9.09487 24.0015 9.09487C28.8561 9.09487 29.4315 9.1123 31.3485 9.19942C33.1213 9.28048 34.0834 9.57669 34.7243 9.82556C35.5728 10.1551 36.1778 10.549 36.8138 11.1854C37.4501 11.8218 37.8441 12.4278 38.1744 13.2763C38.4232 13.9165 38.7198 14.8786 38.8005 16.6513C38.8876 18.568 38.9066 19.1437 38.9066 23.996C38.9066 28.8483 38.8876 29.424 38.8005 31.3407C38.7195 33.1134 38.4232 34.0756 38.1744 34.7157C37.8448 35.5642 37.4501 36.1684 36.8138 36.8043C36.1774 37.4407 35.5732 37.8346 34.7243 38.1642C34.0842 38.4142 33.1213 38.7096 31.3485 38.7907C29.4319 38.8778 28.8561 38.8968 24.0015 38.8968C19.1465 38.8968 18.5711 38.8778 16.6545 38.7907C14.8817 38.7089 13.9196 38.4127 13.2783 38.1638C12.4298 37.8343 11.8237 37.4403 11.1874 36.804C10.551 36.1676 10.157 35.5631 9.82673 34.7142C9.57787 34.074 9.28127 33.1119 9.20059 31.3392C9.11347 29.4225 9.09604 28.8468 9.09604 23.9915C9.09604 19.1362 9.11347 18.5634 9.20059 16.6468C9.28165 14.874 9.57787 13.9119 9.82673 13.271C10.1563 12.4225 10.551 11.8165 11.1874 11.1801C11.8237 10.5437 12.4298 10.1498 13.2783 9.8195C13.9192 9.5695 14.8817 9.27404 16.6545 9.1926C18.3317 9.11684 18.9818 9.09412 22.3704 9.09033V9.09487ZM33.7069 12.1138C33.2753 12.1138 32.8535 12.2418 32.4947 12.4816C32.1358 12.7213 31.8562 13.0621 31.6911 13.4609C31.526 13.8596 31.4828 14.2983 31.567 14.7216C31.6513 15.1448 31.8592 15.5336 32.1644 15.8387C32.4696 16.1438 32.8584 16.3515 33.2817 16.4356C33.705 16.5197 34.1437 16.4764 34.5424 16.3112C34.9411 16.1459 35.2818 15.8661 35.5214 15.5072C35.7611 15.1483 35.8889 14.7264 35.8887 14.2949C35.8887 13.0903 34.9115 12.1131 33.7069 12.1131V12.1138ZM24.0015 14.6631C18.845 14.6631 14.6643 18.8437 14.6643 24.0002C14.6643 29.1566 18.845 33.3354 24.0015 33.3354C29.158 33.3354 33.3376 29.1566 33.3376 24.0002C33.3376 18.8437 29.158 14.6631 24.0015 14.6631ZM24.0015 17.9396C27.3485 17.9396 30.0622 20.6528 30.0622 24.0002C30.0622 27.3471 27.3485 30.0608 24.0015 30.0608C20.6541 30.0608 17.9408 27.3471 17.9408 24.0002C17.9408 20.6528 20.6541 17.9396 24.0015 17.9396Z" fill="white"/>
<defs>
<radialGradient id="paint0_radial_1371_786" cx="0" cy="0" r="1" gradientUnits="userSpaceOnUse" gradientTransform="translate(12.7501 51.697) rotate(-90) scale(47.5715 44.2453)">
<stop stop-color="#FFDD55"/>
<stop offset="0.1" stop-color="#FFDD55"/>
<stop offset="0.5" stop-color="#FF543E"/>
<stop offset="1" stop-color="#C837AB"/>
</radialGradient>
<radialGradient id="paint1_radial_1371_786" cx="0" cy="0" r="1" gradientUnits="userSpaceOnUse" gradientTransform="translate(-8.04025 3.45784) rotate(78.6806) scale(21.2647 87.6539)">
<stop stop-color="#3771C8"/>
<stop offset="0.128" stop-color="#3771C8"/>
<stop offset="1" stop-color="#6600FF" stop-opacity="0"/>
</radialGradient>
</defs>
</svg>
