<svg width="690" height="449" viewBox="0 0 690 449" fill="none" xmlns="http://www.w3.org/2000/svg">
<rect width="690" height="448.501" fill="#FFEED5"/>
<path fill-rule="evenodd" clip-rule="evenodd" d="M0 449H690V292.898C688.829 291.932 687.608 290.902 687.608 290.902V284.228C683.126 274.484 668.099 265.704 668.099 265.704L664.762 266.758V319.428H661.155V329.525H659.489V332.422H658.609V335.145H657.201V361.39L656.5 362.007L654.654 360.6L649.909 363.408V340.322H648.238V339.005L646.835 337.689V323.115L645.865 322.767V318.638L644.9 318.111V290.022L635.146 285.192L623.193 287.915V309.863L618.627 308.546V315.393H615.811V294.673L614.145 292.829L599.993 292.129L592.264 287.389L591.03 299.413H590.065V362.18C589.743 362.89 589.478 363.624 589.274 364.377V370.081H588.394V371.835H586.638L586.548 368.675C587.05 368.114 587.359 367.407 587.429 366.657C587.429 365.726 586.604 365.754 586.049 365.773C585.976 365.775 585.908 365.778 585.847 365.778C585.32 365.778 584.439 366.041 584.439 366.831C584.439 367.621 585.32 368.59 585.32 368.59V371.835H560.365V325.401L556.848 324.258V303.89L552.63 300.73L537.429 300.293V314.077L532.33 316.183V317.848L528.286 317.674V315.04L523.457 315.393V313.55L518.448 313.897V318.991L513.349 319.254V309.947L507.196 310.037V307.14L497.884 300.467L492.696 301.436V370.518H485.668C485.668 370.518 485.578 369.991 485.051 367.8C484.524 365.609 479.251 364.551 479.251 364.551C479.251 364.551 479.604 363.323 479.694 362.707C479.784 362.091 474.949 361.654 474.949 361.654V360.864C475.476 360.864 476.441 359.457 476.441 358.757L472.397 358.141C471.897 357.825 471.367 357.56 470.815 357.351C470.551 357.351 465.985 357.003 465.806 355.86C465.627 354.717 464.667 354.633 463.349 354.543C462.244 354.538 461.146 354.36 460.096 354.017C458.806 353.669 457.477 353.492 456.141 353.49C456.088 353.49 456.037 353.49 455.986 353.491C455.444 353.498 454.982 353.504 453.858 352.7C452.979 352.07 452.143 352.296 451.479 352.475C451.216 352.546 450.98 352.61 450.779 352.61C450.362 352.61 450.009 352.274 449.663 351.945C449.423 351.716 449.186 351.491 448.934 351.383C448.542 351.216 447.659 351.331 446.841 351.437C446.369 351.498 445.918 351.557 445.596 351.557C445.027 351.557 444.423 351.154 443.995 350.869C443.761 350.713 443.58 350.593 443.487 350.593C443.365 350.593 442.922 350.63 442.447 350.67C441.897 350.717 441.304 350.767 441.114 350.767C440.905 350.767 440.511 350.52 440.133 350.283C439.875 350.121 439.623 349.963 439.443 349.892C439.148 349.776 438.543 349.815 437.939 349.854C437.636 349.873 437.334 349.892 437.07 349.892C436.694 349.892 436.159 349.792 435.549 349.678C434.878 349.552 434.117 349.41 433.38 349.366C432.414 349.308 431.947 349.453 431.635 349.55C431.492 349.595 431.382 349.629 431.271 349.629C431.118 349.629 430.544 349.596 429.889 349.558C429.024 349.508 428.021 349.45 427.669 349.45C427.052 349.45 426.789 349.45 426.704 349.977C426.642 350.369 425.257 350.227 424.302 350.128C423.974 350.095 423.697 350.066 423.541 350.066C422.348 350.259 421.135 350.289 419.934 350.156C418.841 349.96 417.713 350.178 416.771 350.767C416.771 350.767 415.453 350.767 414.135 350.682C412.816 350.598 413.433 351.209 413.433 351.209C412.273 350.96 411.099 350.784 409.917 350.682C408.952 350.682 409.041 351.293 409.041 351.293C407.993 350.943 406.894 350.766 405.788 350.767C403.943 350.767 404.644 351.646 404.644 351.646C403.55 351.385 402.431 351.238 401.306 351.209C399.725 351.209 399.814 352.263 399.814 352.263C399.814 352.263 399.108 351.82 397.178 351.82C395.248 351.82 395.507 352.963 395.507 352.963C395.507 352.963 393.224 352.7 391.642 352.7C390.06 352.7 390.234 354.017 390.234 354.017C389.216 353.878 388.188 353.82 387.16 353.843C385.051 353.843 385.399 354.807 385.399 354.807C385.399 354.807 383.026 354.543 381.445 354.543C379.863 354.543 379.336 357.53 379.336 357.53C374.153 356.913 363.871 357.703 363.871 357.703L365.015 349.276L360.533 349.803L359.827 300.73C360.639 300.451 361.325 299.89 361.76 299.151C362.195 298.411 362.351 297.54 362.2 296.695C363.961 292.919 359.215 292.482 359.215 292.482L349.282 291.865V287.036H341.025V291.339H336.28V292.218C315.89 290.375 279.336 286.335 279.336 286.335L277.401 285.108L274.501 284.755C274.503 284.169 274.283 283.604 273.884 283.175L264.045 281.769V277.908L254.902 276.328L252.973 278.608V280.541C226.61 278.608 222.486 280.541 222.486 280.541C222.059 286.335 249.282 289.321 249.282 289.321V290.549L247.347 291.776L248.048 304.596L244.884 341.813L242.074 343.572H233.991V347.259C232.409 346.379 227.664 339.885 227.664 339.885L222.212 339.706C217.82 335.845 215.711 325.838 215.711 325.838L212.901 324.432L210.085 326.891C203.938 347.259 217.994 356.034 217.994 356.034L196.556 358.141H208.33V359.9H206.574V360.953L204.112 362.707H194.621V362.865L191.141 362.702L186.865 352.094C187.028 351.22 187.171 350.314 187.297 349.387H187.687C187.924 349.387 188.15 349.293 188.317 349.126C188.485 348.959 188.578 348.733 188.578 348.497C188.578 348.261 188.485 348.034 188.317 347.867C188.15 347.7 187.924 347.606 187.687 347.606H187.524C187.666 346.311 187.782 344.973 187.861 343.593H188.215C188.451 343.593 188.678 343.499 188.845 343.332C189.012 343.165 189.106 342.939 189.106 342.703C189.106 342.467 189.012 342.24 188.845 342.073C188.678 341.907 188.451 341.813 188.215 341.813H187.946C187.999 340.443 188.009 339.105 187.988 337.799H188.215C188.451 337.799 188.678 337.705 188.845 337.539C189.012 337.372 189.106 337.145 189.106 336.909C189.106 336.673 189.012 336.447 188.845 336.28C188.678 336.113 188.451 336.019 188.215 336.019H187.935C187.882 334.614 187.789 333.277 187.656 332.006H187.687C187.924 332.006 188.15 331.912 188.317 331.745C188.485 331.578 188.578 331.351 188.578 331.115C188.578 330.879 188.485 330.653 188.317 330.486C188.15 330.319 187.924 330.225 187.687 330.225H187.45C187.281 328.986 187.079 327.813 186.844 326.707C187.059 326.659 187.248 326.534 187.375 326.355C187.502 326.175 187.558 325.955 187.532 325.737C187.506 325.519 187.399 325.318 187.233 325.174C187.067 325.03 186.853 324.953 186.633 324.958H186.427C186.198 324.066 185.919 323.187 185.594 322.325C185.701 322.243 185.788 322.138 185.847 322.017C185.907 321.897 185.938 321.764 185.937 321.63C185.937 321.394 185.844 321.169 185.678 321.002C185.512 320.835 185.286 320.741 185.051 320.739H184.914C184.735 320.386 184.555 320.06 184.387 319.754C184.515 319.679 184.621 319.571 184.695 319.441C184.769 319.312 184.808 319.166 184.809 319.017C184.807 318.787 184.715 318.568 184.552 318.406C184.389 318.244 184.168 318.153 183.939 318.153H183.121C182.956 318.002 182.78 317.863 182.594 317.737C182.793 317.677 182.964 317.548 183.075 317.372C183.186 317.197 183.23 316.988 183.199 316.782C183.169 316.577 183.065 316.39 182.907 316.255C182.75 316.12 182.549 316.046 182.341 316.046H181.044C180.978 315.89 180.868 315.756 180.726 315.662C180.584 315.569 180.418 315.519 180.248 315.52H178.724C178.495 315.521 178.276 315.613 178.114 315.774C177.952 315.936 177.861 316.155 177.859 316.384C177.852 316.446 177.852 316.51 177.859 316.573H176.594C176.389 316.571 176.19 316.642 176.032 316.774C175.875 316.905 175.769 317.088 175.734 317.29C175.699 317.492 175.737 317.7 175.842 317.876C175.946 318.053 176.11 318.186 176.304 318.253C175.993 318.547 175.707 318.866 175.45 319.207H175.012C174.831 319.203 174.654 319.256 174.505 319.358C174.356 319.46 174.242 319.606 174.181 319.776C174.119 319.945 174.112 320.13 174.161 320.304C174.21 320.478 174.312 320.632 174.453 320.745C174.205 321.212 173.982 321.68 173.739 322.188L173.646 322.383H173.43C173.24 322.383 173.055 322.446 172.904 322.561C172.753 322.677 172.645 322.839 172.595 323.023C172.546 323.206 172.559 323.401 172.632 323.577C172.704 323.753 172.833 323.899 172.998 323.994C172.761 324.648 172.534 325.337 172.318 326.07H171.849C171.63 326.087 171.426 326.185 171.278 326.346C171.129 326.506 171.046 326.717 171.046 326.936C171.046 327.155 171.129 327.366 171.278 327.526C171.426 327.687 171.63 327.785 171.849 327.802C171.611 328.756 171.39 329.762 171.195 330.81H170.799C170.581 330.827 170.377 330.926 170.228 331.086C170.08 331.247 169.997 331.458 169.997 331.676C169.997 331.895 170.08 332.106 170.228 332.266C170.377 332.427 170.581 332.526 170.799 332.543H170.894C170.741 333.512 170.609 334.518 170.493 335.55H170.272C170.054 335.567 169.85 335.666 169.701 335.827C169.552 335.987 169.47 336.198 169.47 336.417C169.47 336.635 169.552 336.846 169.701 337.007C169.85 337.167 170.054 337.266 170.272 337.283H170.319C170.219 338.437 170.14 339.627 170.093 340.838C169.904 340.879 169.735 340.982 169.612 341.13C169.489 341.278 169.418 341.463 169.412 341.655C169.406 341.848 169.465 342.037 169.578 342.192C169.692 342.348 169.855 342.461 170.04 342.513V346.116C169.85 346.166 169.682 346.279 169.565 346.437C169.447 346.594 169.387 346.788 169.395 346.984C169.402 347.18 169.476 347.369 169.605 347.517C169.734 347.666 169.91 347.766 170.103 347.801C170.103 348.007 170.103 348.217 170.135 348.423L161.799 361.527L158.831 358.831V353.737H152.925V308.441L107.755 303.79L104.502 305.191V352.157H101.865V356.034H97.4734V357.967H83.675V320.834L73.3934 319.607V301.783L66.982 287.215H60.7392L59.2471 288.352L52.92 304.153V318.817H51.4279V314.25L42.9917 313.197V313.813H39.3853V313.023L29.457 313.55V315.04L17.5937 312.407V311.09L12.7587 309.773V308.193C12.7587 308.193 6.95885 307.14 3.97456 308.367V309.947L0 310.372V449ZM186.132 347.606H187.002C187.153 346.297 187.269 344.959 187.35 343.593H186.659C186.468 343.594 186.281 343.532 186.128 343.417C185.975 343.302 185.863 343.14 185.81 342.956C185.721 344.699 185.578 346.39 185.389 348.012C185.469 347.888 185.579 347.786 185.709 347.715C185.839 347.645 185.984 347.607 186.132 347.606ZM186.132 349.387C186.004 349.386 185.878 349.358 185.763 349.302L186.512 351.167C186.612 350.589 186.696 349.989 186.78 349.39L186.781 349.387H186.132ZM186.09 353.4C186.174 352.989 186.259 352.573 186.338 352.147L185.215 349.366C184.988 350.867 184.751 352.294 184.461 353.648C184.627 353.49 184.848 353.401 185.077 353.4H186.09ZM186.854 353.427L186.701 353.047V353.032C186.697 353.056 186.692 353.081 186.688 353.105C186.669 353.202 186.65 353.301 186.654 353.427C186.693 353.422 186.732 353.42 186.771 353.421C186.799 353.421 186.827 353.423 186.854 353.427ZM187.44 341.786C187.477 340.406 187.477 339.084 187.477 337.773L186.638 337.741C186.483 337.741 186.331 337.7 186.197 337.622C186.063 337.545 185.951 337.433 185.874 337.299C185.909 338.753 185.896 340.248 185.837 341.786V342.313C185.908 342.155 186.023 342.021 186.169 341.927C186.315 341.834 186.486 341.785 186.659 341.786H187.44ZM187.417 335.993H186.659C186.496 335.993 186.335 336.039 186.196 336.124C186.056 336.209 185.943 336.332 185.868 336.477C185.816 334.834 185.705 333.254 185.547 331.737C185.706 331.884 185.915 331.965 186.132 331.963H187.107C187.254 333.267 187.359 334.601 187.417 335.993ZM186.121 330.199H186.891L186.902 330.225C186.733 328.982 186.527 327.813 186.28 326.712H185.067C184.955 326.71 184.844 326.689 184.74 326.649C184.998 327.871 185.22 329.182 185.399 330.573C185.481 330.457 185.589 330.363 185.715 330.298C185.84 330.233 185.98 330.199 186.121 330.199ZM185.837 324.932C185.601 324.054 185.343 323.243 185.062 322.499H183.554C183.879 323.393 184.159 324.304 184.392 325.227C184.475 325.134 184.577 325.06 184.69 325.009C184.804 324.958 184.927 324.932 185.051 324.932H185.837ZM183.838 319.865H182.425L182.367 319.881C182.562 320.186 182.752 320.55 182.937 320.934C183.094 320.796 183.296 320.719 183.506 320.718H184.323C184.177 320.426 184.015 320.141 183.838 319.865ZM180.844 317.758C180.728 317.756 180.615 317.729 180.511 317.679L180.474 317.7C180.898 317.995 181.276 318.35 181.598 318.754C181.645 318.595 181.738 318.452 181.864 318.344C181.99 318.236 182.145 318.166 182.309 318.143C182.073 317.975 181.811 317.845 181.534 317.758H180.844ZM180.047 317.258V317.231H179.467C179.58 317.259 179.691 317.295 179.8 317.337C179.817 317.33 179.835 317.322 179.853 317.314C179.916 317.287 179.982 317.258 180.047 317.258ZM179.156 317.663H178.993L178.967 317.674C178.951 317.734 178.93 317.792 178.903 317.848L179.156 317.663ZM178.144 318.285H177.079L177.053 318.295C176.709 318.556 176.396 318.855 176.119 319.186H176.562C176.708 319.187 176.851 319.224 176.979 319.294C177.107 319.364 177.215 319.464 177.295 319.586C177.632 319.095 178.019 318.639 178.45 318.227C178.352 318.265 178.249 318.285 178.144 318.285ZM174.944 320.918C174.696 321.361 174.453 321.835 174.253 322.346H175.002C175.129 322.345 175.255 322.373 175.37 322.428C175.485 322.483 175.586 322.563 175.666 322.662C175.935 322.035 176.214 321.445 176.499 320.918H174.944ZM173.557 324.079L173.53 324.089C173.304 324.705 173.088 325.353 172.871 326.043H173.399C173.6 326.044 173.796 326.114 173.951 326.243C174.106 326.372 174.211 326.551 174.248 326.749C174.511 325.801 174.794 324.911 175.096 324.079H173.557ZM173.399 327.766H172.439L172.413 327.776C172.17 328.729 171.949 329.735 171.759 330.773H172.344C172.548 330.773 172.746 330.844 172.902 330.975C173.059 331.106 173.163 331.288 173.198 331.489C173.446 330.083 173.736 328.714 174.058 327.45C173.979 327.549 173.879 327.628 173.765 327.683C173.65 327.738 173.525 327.766 173.399 327.766ZM172.344 332.506H171.474L171.448 332.516C171.293 333.489 171.16 334.488 171.047 335.513H171.817C171.971 335.513 172.123 335.554 172.256 335.633C172.389 335.712 172.497 335.825 172.571 335.961C172.713 334.613 172.893 333.312 173.098 332.063C173.023 332.197 172.914 332.309 172.781 332.387C172.649 332.465 172.498 332.506 172.344 332.506ZM172.713 345.463C172.755 347.654 172.898 349.782 173.13 351.783L173.103 351.82C173.176 351.931 173.221 352.057 173.235 352.189C173.233 352.262 173.222 352.334 173.204 352.405C173.298 353.142 173.404 353.864 173.525 354.564L173.905 343.614L172.713 345.463ZM173.277 356.055C173.074 355.065 172.898 354.031 172.75 352.953L172.724 352.963C172.604 353.012 172.474 353.034 172.344 353.026H171.153C171.304 354.083 171.479 355.093 171.68 356.055C171.743 356.047 171.807 356.047 171.87 356.055H173.277ZM173.309 360.811L173.415 357.788H172.107L172.158 357.993C172.189 358.113 172.219 358.232 172.249 358.346C172.484 359.207 172.768 360.055 173.098 360.885C173.165 360.852 173.236 360.827 173.309 360.811ZM170.731 348.528C170.789 349.476 170.868 350.409 170.968 351.315L172.344 351.351C172.405 351.343 172.467 351.343 172.529 351.351C172.402 350.15 172.302 348.923 172.239 347.664C172.111 347.741 171.965 347.781 171.817 347.78H171.211L170.731 348.528ZM171.817 337.246H170.894L170.868 337.257C170.762 338.412 170.687 339.587 170.641 340.78H171.817C171.957 340.781 172.094 340.815 172.218 340.88C172.27 339.532 172.36 338.215 172.476 336.935C172.396 337.032 172.295 337.11 172.181 337.164C172.067 337.218 171.943 337.246 171.817 337.246ZM171.817 342.513H170.609L170.583 342.524C170.559 343.721 170.567 344.896 170.609 346.047H171.69L172.175 345.3V342.434C172.063 342.485 171.941 342.511 171.817 342.513ZM170.451 351.409C170.372 350.709 170.304 349.998 170.251 349.266L162.458 361.322L172.634 361.796C172.629 361.745 172.629 361.694 172.634 361.643C172.636 361.52 172.663 361.398 172.713 361.285C172.342 360.367 172.025 359.428 171.764 358.472C171.696 358.22 171.627 357.956 171.559 357.693C171.404 357.626 171.272 357.516 171.178 357.376C171.085 357.235 171.034 357.071 171.031 356.903C171.035 356.71 171.104 356.525 171.226 356.376C171.005 355.312 170.81 354.19 170.646 353.021C170.456 352.977 170.286 352.87 170.164 352.717C170.043 352.563 169.977 352.374 169.977 352.178C169.978 352.019 170.023 351.863 170.107 351.728C170.191 351.592 170.31 351.482 170.451 351.409ZM174.364 360.205V360.795H174.585L174.53 360.65C174.474 360.504 174.419 360.359 174.364 360.205ZM175.872 361.659C175.87 361.762 175.848 361.864 175.808 361.959L181.002 362.201C181.702 360.926 182.278 359.585 182.721 358.199L182.315 342.756H174.991L174.437 358.62C174.648 359.415 174.917 360.147 175.176 360.811C175.371 360.852 175.547 360.958 175.673 361.112C175.8 361.267 175.87 361.46 175.872 361.659ZM182.684 359.821C182.361 360.645 181.988 361.449 181.566 362.228L182.831 362.291L182.768 360.005C182.754 359.982 182.741 359.958 182.729 359.934C182.711 359.897 182.696 359.86 182.684 359.821ZM173.926 341.686H183.343L183.369 343.314L184.951 347.238C185.141 345.479 185.278 343.667 185.341 341.792C185.626 333.886 184.624 326.686 182.895 322.246C182.806 322.164 182.735 322.065 182.687 321.954C182.639 321.843 182.614 321.724 182.615 321.603V321.577C181.803 319.691 180.849 318.417 179.794 317.89C178.748 318.486 177.894 319.369 177.332 320.434C177.311 320.476 177.286 320.517 177.258 320.555C174.843 324.574 173.051 332.348 172.734 341.254C172.687 342.344 172.687 343.428 172.687 344.481V344.483L173.926 342.561V341.686ZM184.84 348.318L183.422 344.81L183.686 354.78C184.19 352.649 184.576 350.492 184.84 348.318ZM184.265 354.564C184.102 355.296 183.928 356.002 183.738 356.671L183.775 358.62H184.666C185.041 357.556 185.383 356.387 185.694 355.133H185.093C184.914 355.133 184.739 355.079 184.591 354.977C184.443 354.876 184.33 354.732 184.265 354.564ZM183.944 360.405H183.833L183.801 360.737L183.944 360.405ZM183.886 361.854V362.323L190.624 362.633L187.434 354.733C187.354 354.857 187.244 354.959 187.114 355.029C186.984 355.1 186.839 355.138 186.691 355.138H186.259C185.932 356.399 185.58 357.566 185.204 358.641C185.432 358.665 185.642 358.776 185.79 358.952C185.938 359.127 186.011 359.353 185.996 359.582C185.98 359.81 185.876 360.024 185.706 360.178C185.535 360.331 185.312 360.413 185.083 360.405H184.555C184.339 360.916 184.113 361.406 183.886 361.854ZM290.144 296.5C290.144 296.237 291.726 295.51 291.726 295.51V294.552C289.027 294.352 277.227 293.103 277.227 293.103V349.761C280.917 350.356 281.777 351.673 281.777 351.673C282.213 351.487 282.695 351.441 283.158 351.541C284.351 351.693 284.865 352.059 285.235 352.321C285.414 352.448 285.559 352.551 285.731 352.594C286.233 352.665 286.743 352.665 287.244 352.594L291.267 314.54C291.267 314.54 290.144 296.764 290.144 296.5ZM332.457 300.187C332.589 299.724 333.844 298.802 333.844 298.802V298.275L318.817 297.159C319.344 303.737 319.212 351.868 319.212 351.868L321.98 352.199C321.996 351.815 322.135 351.446 322.376 351.146C323.146 350.324 326.789 351.278 326.789 351.278C326.821 351.037 326.927 350.813 327.092 350.636C327.258 350.458 327.474 350.337 327.712 350.287C328.571 350.093 331.798 349.829 331.798 349.829L333.844 325.927L332.457 300.187Z" fill="#F3DCB6"/>
</svg>
