<svg width="43" height="48" viewBox="0 0 43 48" fill="none" xmlns="http://www.w3.org/2000/svg">
<path d="M16.5438 18.9039V17.0334C15.8945 16.9305 15.2387 16.8742 14.5814 16.8648C8.21762 16.8513 2.58334 20.9751 0.672592 27.0453C-1.23846 33.1153 1.01724 39.7228 6.24095 43.3574C2.32807 39.1696 1.24154 33.0731 3.46689 27.7915C5.69209 22.5098 10.8137 19.0288 16.5438 18.9039Z" fill="#25F4EE"/>
<path d="M16.8963 40.0915C20.4542 40.0868 23.379 37.2836 23.5347 33.729V2.00841H29.33C29.2117 1.34561 29.1553 0.673248 29.1614 0L21.235 0V31.69C21.1032 35.2626 18.1717 38.0926 14.5965 38.0985C13.5282 38.0894 12.4772 37.8267 11.5303 37.3319C12.144 38.1822 12.9499 38.8754 13.8825 39.355C14.815 39.8345 15.8476 40.0869 16.8963 40.0915ZM40.154 12.771V11.0079C38.0212 11.0087 35.9357 10.3793 34.1594 9.19883C35.7166 11.009 37.8208 12.263 40.154 12.771Z" fill="#25F4EE"/>
<path d="M34.1595 9.19891C32.4097 7.20634 31.4451 4.64496 31.4458 1.99316H29.3301C29.6034 3.45932 30.1725 4.85441 31.0028 6.0933C31.8332 7.33219 32.9072 8.38889 34.1595 9.19891ZM14.5813 24.7909C11.5279 24.8066 8.87712 26.8984 8.15195 29.8644C7.42677 32.8304 8.81334 35.9092 11.515 37.332C10.7971 36.3408 10.3671 35.1704 10.2727 33.9502C10.1782 32.73 10.4229 31.5074 10.9798 30.4175C11.5366 29.3276 12.3839 28.4129 13.428 27.7744C14.4721 27.1359 15.6725 26.7984 16.8964 26.7993C17.5617 26.8076 18.2225 26.9109 18.8588 27.106V19.0417C18.2091 18.9443 17.5533 18.8931 16.8964 18.8883H16.5437V25.0209C15.9042 24.8494 15.2431 24.7719 14.5813 24.7909Z" fill="#FE2C55"/>
<path d="M40.1542 12.771V18.9035C36.2059 18.8959 32.3601 17.6462 29.1616 15.3313V31.4446C29.1448 39.485 22.6219 45.9941 14.5815 45.9941C11.5955 45.9994 8.6814 45.0781 6.24121 43.3571C10.3135 47.737 16.6512 49.1787 22.2176 46.9916C27.7838 44.8042 31.4446 39.4336 31.446 33.453V17.3857C34.6552 19.6854 38.5058 20.9189 42.4539 20.912V13.0163C41.681 13.0138 40.9103 12.9316 40.1542 12.771Z" fill="#FE2C55"/>
<path d="M29.1617 31.4447V15.3315C32.37 17.633 36.2211 18.8667 40.1696 18.8577V12.7251C37.8369 12.2325 35.7276 10.9949 34.1597 9.19891C32.9074 8.38889 31.8334 7.33219 31.003 6.0933C30.1727 4.85441 29.6036 3.45932 29.3303 1.99316H23.535V33.7291C23.4191 36.5605 21.5226 39.0077 18.8099 39.8267C16.097 40.6457 13.1634 39.6568 11.4999 37.3627C8.79821 35.9399 7.41164 32.8611 8.13682 29.895C8.86199 26.929 11.5128 24.8372 14.5662 24.8216C15.2318 24.8275 15.8929 24.9308 16.5286 25.1282V18.9957C10.7663 19.0933 5.60607 22.5863 3.37443 27.8997C1.14295 33.2131 2.26137 39.343 6.22592 43.5259C8.69018 45.1901 11.6085 46.0522 14.5815 45.9942C22.6219 45.9942 29.1448 39.4851 29.1617 31.4447Z" fill="black"/>
</svg>
