<svg width="55" height="39" viewBox="0 0 55 39" fill="none" xmlns="http://www.w3.org/2000/svg">
<path d="M53.3275 6.08987C52.7011 3.6928 50.8557 1.805 48.512 1.16433C44.2648 0 27.2328 0 27.2328 0C27.2328 0 10.2009 0 5.95355 1.16433C3.60982 1.805 1.76395 3.6928 1.13798 6.08987C0 10.4347 0 19.5 0 19.5C0 19.5 0 28.5649 1.13798 32.9101C1.76395 35.3074 3.60982 37.1948 5.95331 37.8361C10.2007 39 27.2325 39 27.2325 39C27.2325 39 44.2646 39 48.5117 37.8361C50.8555 37.195 52.7009 35.3074 53.3273 32.9104C54.4655 28.5651 54.4655 19.5002 54.4655 19.5002C54.4655 19.5002 54.4655 10.4349 53.3273 6.09011" fill="#FF0000"/>
<path d="M21.5176 27.5691L35.6383 19.5006L21.5176 11.4312V27.5691Z" fill="white"/>
</svg>
