<svg width="218" height="57" viewBox="0 0 218 57" fill="none" xmlns="http://www.w3.org/2000/svg">
<path d="M42.8213 0.963867V19.3579C42.8213 23.7295 46.5154 27.2863 51.0564 27.2863C55.597 27.2863 59.2911 23.7295 59.2911 19.3579V0.963867H42.8213Z" fill="#F7A526"/>
<path d="M62.584 0.963867V19.0271C62.584 23.5811 66.2793 27.2863 70.8216 27.2863C76.0944 27.2863 80.1007 22.1504 78.8101 17.0105L74.9369 1.58564C74.8449 1.21969 74.5175 0.963867 74.1406 0.963867H62.584Z" fill="#F7A526"/>
<path d="M46.1152 40.4463H55.9971V56.8978H46.1152V40.4463Z" fill="#F7A526"/>
<path d="M30.2321 0.963867C29.9333 0.963867 29.6737 1.21969 29.6007 1.58589L26.5478 16.9189C25.5147 22.1084 28.7168 27.2879 32.9385 27.2863C36.5722 27.2863 39.5284 23.5483 39.5284 18.9534V0.963867H30.2321Z" fill="#F7A526"/>
<path d="M70.9362 29.527C66.8002 29.527 63.1409 27.3465 60.9499 24.0242C58.8278 27.3403 55.2177 29.527 51.1293 29.527C47.0301 29.527 43.4119 27.3289 41.2917 23.998C39.0874 27.3366 35.4091 29.527 31.251 29.527C29.5407 29.527 27.8786 29.1582 26.3525 28.4576V56.0666C26.3525 56.5266 26.7098 56.9011 27.149 56.9011H41.3279V38.5483C41.3279 37.3502 42.255 36.3788 43.3986 36.3788H58.7172C59.8608 36.3788 60.7879 37.3502 60.7879 38.5483V56.9009H74.9656C75.4047 56.9009 75.762 56.5266 75.762 56.0664V28.4834C74.2566 29.1672 72.6193 29.527 70.9362 29.527Z" fill="#F7A526"/>
<path d="M3.15586 15.6093C5.0981 15.4574 9.84306 15.0824 13.7001 14.7759C17.5573 14.4697 21.1648 14.2071 21.7171 14.1926L22.7851 14.1243C22.9518 14.1137 23.0815 14.4235 23.0541 14.7668L23.0335 15.0262L22.9911 15.8388L22.9594 16.6733L22.9566 16.8782C22.9523 17.1874 22.8271 17.4294 22.6788 17.4136L21.6958 17.3096C20.9365 17.2413 15.8389 16.9149 10.3678 16.5844C4.89667 16.2538 0.241239 15.9615 0.0223956 15.9346C-0.196448 15.9077 1.21361 15.7612 3.15586 15.6093Z" fill="#F7A526"/>
<path d="M9.88901 3.33397C9.71426 3.32344 13.2578 2.77686 17.7636 2.11934C21.4135 1.58673 24.8333 1.1268 26.0232 0.965508C26.2291 0.937586 26.3993 1.27089 26.3411 1.58797L26.3091 1.76197L26.1517 2.61972L25.948 3.91451C25.9161 4.1186 25.7995 4.2597 25.668 4.25401L22.1503 4.10193C21.1621 4.04531 19.8063 3.96268 19.1377 3.91873C18.1143 3.85127 10.8891 3.39454 9.88901 3.33397Z" fill="#F7A526"/>
<path d="M15.2526 24.8003C18.1119 24.5538 21.1873 24.2804 22.0869 24.1916C22.9866 24.1028 24.2073 24.0162 24.7996 23.9988L25.2873 23.998C25.6047 23.9977 25.8949 24.3407 26.037 24.8841L26.2981 25.8827C26.475 26.5592 26.1983 27.354 25.8051 27.284C25.5449 27.1757 10.8972 25.4455 10.2801 25.4232C9.11163 25.3813 10.4483 25.2136 15.2526 24.8003Z" fill="#F7A526"/>
<path d="M118.637 44.5386C116.405 42.8774 115.29 40.5201 115.29 37.466C115.29 37.1639 115.321 36.7109 115.384 36.1069H123.715C123.622 37.3827 123.902 38.3894 124.558 39.1272C125.213 39.8656 126.211 40.2346 127.553 40.2346C128.77 40.2346 129.73 39.9498 130.432 39.3789C131.134 38.8086 131.485 38.0032 131.485 36.9626C131.485 35.8889 131.04 35.0168 130.151 34.345C129.262 33.674 127.881 32.919 126.009 32.0798C124.199 31.2744 122.724 30.5115 121.585 29.7894C120.446 29.068 119.456 28.0865 118.613 26.8446C117.771 25.6034 117.349 24.0429 117.349 22.1631C117.318 19.8475 117.848 17.8339 118.941 16.1225C120.033 14.411 121.546 13.1022 123.481 12.196C125.415 11.29 127.631 10.8369 130.127 10.8369C132.374 10.8369 134.371 11.2144 136.119 11.9695C137.866 12.7247 139.223 13.8156 140.191 15.2416C141.158 16.6683 141.642 18.3547 141.642 20.3005C141.642 20.804 141.626 21.1736 141.595 21.408H133.076C133.107 21.2743 133.123 21.0729 133.123 20.804C133.123 19.8647 132.819 19.1011 132.21 18.5136C131.602 17.9267 130.767 17.6326 129.706 17.6326C128.583 17.6326 127.67 17.9267 126.968 18.5136C126.266 19.1011 125.915 19.8978 125.915 20.9045C125.915 21.9114 126.351 22.7593 127.225 23.4466C128.099 24.135 129.456 24.9317 131.298 25.8377C133.138 26.7439 134.644 27.5831 135.814 28.3548C136.984 29.1271 137.991 30.1589 138.833 31.4506C139.676 32.7428 140.097 34.3284 140.097 36.2076C140.097 38.2887 139.582 40.1513 138.553 41.7951C137.523 43.4397 136.04 44.7233 134.106 45.646C132.171 46.5694 129.909 47.0303 127.319 47.0303C123.762 47.0303 120.867 46.1998 118.637 44.5386Z" fill="#F7A526"/>
<path d="M165.971 23.0478C167.317 24.3022 167.991 26.0491 167.991 28.2901C167.991 29.0373 167.906 29.8378 167.736 30.6913L165.268 43.7368H158.03L160.329 31.6115C160.414 31.1583 160.457 30.758 160.457 30.411C160.457 29.2906 160.123 28.424 159.456 27.8099C158.789 27.1966 157.86 26.8895 156.668 26.8895C155.248 26.8895 154.056 27.3034 153.092 28.13C152.126 28.9574 151.502 30.1178 151.218 31.6115V31.5316L148.92 43.7368H141.64L147.217 14.124H154.496L152.581 24.3685C153.517 23.3818 154.667 22.6014 156.029 22.0274C157.391 21.454 158.867 21.167 160.457 21.167C162.784 21.167 164.621 21.7942 165.971 23.0478Z" fill="#F7A526"/>
<path d="M175.19 42.7426C173.944 42.0777 172.981 41.1378 172.302 39.9222C171.624 38.7072 171.285 37.297 171.285 35.6918C171.285 33.5137 171.785 31.5301 172.787 29.7417C173.789 27.9533 175.168 26.549 176.927 25.5284C178.685 24.5086 180.644 23.998 182.802 23.998C184.405 23.998 185.834 24.3365 187.093 25.0126C188.349 25.6891 189.323 26.635 190.014 27.85C190.703 29.0656 191.049 30.4758 191.049 32.0804C191.049 34.2817 190.542 36.2711 189.529 38.0478C188.516 39.8249 187.126 41.2179 185.356 42.2266C183.588 43.2358 181.622 43.7399 179.464 43.7399C177.862 43.7399 176.436 43.4077 175.19 42.7426ZM182.786 37.807C183.53 37.2224 184.11 36.4657 184.522 35.537C184.933 34.6084 185.139 33.6399 185.139 32.6308C185.139 31.4845 184.838 30.6016 184.238 29.9825C183.637 29.3633 182.88 29.0538 181.968 29.0538C181.011 29.0538 180.17 29.3462 179.448 29.9308C178.724 30.5156 178.163 31.2781 177.761 32.218C177.36 33.1584 177.16 34.1441 177.16 35.1759C177.16 36.2996 177.449 37.1654 178.029 37.7726C178.606 38.3804 179.353 38.6841 180.265 38.6841C181.199 38.6841 182.039 38.3917 182.786 37.807Z" fill="#F7A526"/>
<path d="M205.638 24.9471C206.87 24.3144 208.237 23.998 209.737 23.998C212.026 23.998 213.874 24.7759 215.286 26.3312C216.697 27.8871 217.403 29.9961 217.403 32.6588C217.403 33.4762 217.326 34.3592 217.174 35.3084C216.793 37.5761 216.043 39.5733 214.924 41.2998C213.804 43.0269 212.458 44.3584 210.881 45.294C209.304 46.2301 207.64 46.6978 205.886 46.6978C204.41 46.6978 203.164 46.3815 202.149 45.7488C201.131 45.1161 200.38 44.2991 199.897 43.2968L197.571 56.9011H191.051L196.579 24.3144H203.101L202.568 27.4385C203.381 26.4104 204.404 25.5799 205.638 24.9471ZM210.69 34.0824C210.69 32.7644 210.328 31.7361 209.604 30.9977C208.879 30.2599 207.958 29.8905 206.839 29.8905C205.542 29.8905 204.36 30.3787 203.292 31.3537C202.224 32.3293 201.537 33.6611 201.232 35.3479C201.156 35.8225 201.118 36.2575 201.118 36.6529C201.118 37.945 201.474 38.9603 202.186 39.6981C202.897 40.4365 203.813 40.8054 204.932 40.8054C206.228 40.8054 207.416 40.3111 208.497 39.3225C209.578 38.3338 210.271 36.9958 210.576 35.3084C210.653 34.8604 210.69 34.452 210.69 34.0824Z" fill="#F7A526"/>
<path d="M89.1782 35.2372L91.733 23.998H98.9488L96.6007 34.4954C96.5103 34.8728 96.4634 35.2382 96.4586 35.5919C96.4445 36.5841 96.7652 37.3484 97.4207 37.8869C98.0761 38.4242 98.9982 38.6993 100.183 38.7111C101.539 38.724 102.694 38.3986 103.649 37.7356C104.604 37.0715 105.245 36.1165 105.574 34.8678L108.03 23.998H115.288L110.872 43.6685L103.63 43.5977L104.218 40.9107C103.274 41.7753 102.128 42.467 100.78 42.9847C99.4317 43.5025 97.9952 43.7541 96.4704 43.7393C94.0987 43.7157 92.244 43.137 90.9049 42.0022C89.5645 40.8675 88.9092 39.2966 88.9374 37.2895C88.949 36.534 89.0278 35.8503 89.1782 35.2372Z" fill="#F7A526"/>
</svg>
