<svg width="290" height="40" viewBox="0 0 290 40" fill="none" xmlns="http://www.w3.org/2000/svg">
<path d="M134.12 14.72C134.12 16.2133 133.76 17.6133 133.04 18.92C132.347 20.2267 131.24 21.28 129.72 22.08C128.227 22.88 126.333 23.28 124.04 23.28H119.36V34H113.76V6.08H124.04C126.2 6.08 128.04 6.45333 129.56 7.2C131.08 7.94667 132.213 8.97333 132.96 10.28C133.733 11.5867 134.12 13.0667 134.12 14.72ZM123.8 18.76C125.347 18.76 126.493 18.4133 127.24 17.72C127.987 17 128.36 16 128.36 14.72C128.36 12 126.84 10.64 123.8 10.64H119.36V18.76H123.8ZM143.296 15.28C144.016 14.1067 144.949 13.1867 146.096 12.52C147.269 11.8533 148.603 11.52 150.096 11.52V17.4H148.616C146.856 17.4 145.523 17.8133 144.616 18.64C143.736 19.4667 143.296 20.9067 143.296 22.96V34H137.696V11.84H143.296V15.28ZM163.308 34.36C161.174 34.36 159.254 33.8933 157.548 32.96C155.841 32 154.494 30.6533 153.508 28.92C152.548 27.1867 152.068 25.1867 152.068 22.92C152.068 20.6533 152.561 18.6533 153.548 16.92C154.561 15.1867 155.934 13.8533 157.668 12.92C159.401 11.96 161.334 11.48 163.468 11.48C165.601 11.48 167.534 11.96 169.268 12.92C171.001 13.8533 172.361 15.1867 173.348 16.92C174.361 18.6533 174.868 20.6533 174.868 22.92C174.868 25.1867 174.348 27.1867 173.308 28.92C172.294 30.6533 170.908 32 169.148 32.96C167.414 33.8933 165.468 34.36 163.308 34.36ZM163.308 29.48C164.321 29.48 165.268 29.24 166.148 28.76C167.054 28.2533 167.774 27.5067 168.308 26.52C168.841 25.5333 169.108 24.3333 169.108 22.92C169.108 20.8133 168.548 19.2 167.428 18.08C166.334 16.9333 164.988 16.36 163.388 16.36C161.788 16.36 160.441 16.9333 159.348 18.08C158.281 19.2 157.748 20.8133 157.748 22.92C157.748 25.0267 158.268 26.6533 159.308 27.8C160.374 28.92 161.708 29.48 163.308 29.48ZM177.136 22.84C177.136 20.6 177.576 18.6133 178.456 16.88C179.362 15.1467 180.589 13.8133 182.136 12.88C183.682 11.9467 185.402 11.48 187.296 11.48C188.736 11.48 190.109 11.8 191.416 12.44C192.722 13.0533 193.762 13.88 194.536 14.92V4.4H200.216V34H194.536V30.72C193.842 31.8133 192.869 32.6933 191.616 33.36C190.362 34.0267 188.909 34.36 187.256 34.36C185.389 34.36 183.682 33.88 182.136 32.92C180.589 31.96 179.362 30.6133 178.456 28.88C177.576 27.12 177.136 25.1067 177.136 22.84ZM194.576 22.92C194.576 21.56 194.309 20.4 193.776 19.44C193.242 18.4533 192.522 17.7067 191.616 17.2C190.709 16.6667 189.736 16.4 188.696 16.4C187.656 16.4 186.696 16.6533 185.816 17.16C184.936 17.6667 184.216 18.4133 183.656 19.4C183.122 20.36 182.856 21.5067 182.856 22.84C182.856 24.1733 183.122 25.3467 183.656 26.36C184.216 27.3467 184.936 28.1067 185.816 28.64C186.722 29.1733 187.682 29.44 188.696 29.44C189.736 29.44 190.709 29.1867 191.616 28.68C192.522 28.1467 193.242 27.4 193.776 26.44C194.309 25.4533 194.576 24.28 194.576 22.92ZM226.205 11.84V34H220.565V31.2C219.845 32.16 218.898 32.92 217.725 33.48C216.578 34.0133 215.325 34.28 213.965 34.28C212.232 34.28 210.698 33.92 209.365 33.2C208.032 32.4533 206.978 31.3733 206.205 29.96C205.458 28.52 205.085 26.8133 205.085 24.84V11.84H210.685V24.04C210.685 25.8 211.125 27.16 212.005 28.12C212.885 29.0533 214.085 29.52 215.605 29.52C217.152 29.52 218.365 29.0533 219.245 28.12C220.125 27.16 220.565 25.8 220.565 24.04V11.84H226.205ZM229.89 22.92C229.89 20.6267 230.357 18.6267 231.29 16.92C232.224 15.1867 233.517 13.8533 235.17 12.92C236.824 11.96 238.717 11.48 240.85 11.48C243.597 11.48 245.864 12.1733 247.65 13.56C249.464 14.92 250.677 16.84 251.29 19.32H245.25C244.93 18.36 244.384 17.6133 243.61 17.08C242.864 16.52 241.93 16.24 240.81 16.24C239.21 16.24 237.944 16.8267 237.01 18C236.077 19.1467 235.61 20.7867 235.61 22.92C235.61 25.0267 236.077 26.6667 237.01 27.84C237.944 28.9867 239.21 29.56 240.81 29.56C243.077 29.56 244.557 28.5467 245.25 26.52H251.29C250.677 28.92 249.464 30.8267 247.65 32.24C245.837 33.6533 243.57 34.36 240.85 34.36C238.717 34.36 236.824 33.8933 235.17 32.96C233.517 32 232.224 30.6667 231.29 28.96C230.357 27.2267 229.89 25.2133 229.89 22.92ZM261.513 16.44V27.16C261.513 27.9067 261.686 28.4533 262.033 28.8C262.406 29.12 263.019 29.28 263.873 29.28H266.473V34H262.953C258.233 34 255.873 31.7067 255.873 27.12V16.44H253.233V11.84H255.873V6.36H261.513V11.84H266.473V16.44H261.513ZM278.581 34.36C276.767 34.36 275.141 34.04 273.701 33.4C272.261 32.7333 271.114 31.84 270.261 30.72C269.434 29.6 268.981 28.36 268.901 27H274.541C274.647 27.8533 275.061 28.56 275.781 29.12C276.527 29.68 277.447 29.96 278.541 29.96C279.607 29.96 280.434 29.7467 281.021 29.32C281.634 28.8933 281.941 28.3467 281.941 27.68C281.941 26.96 281.567 26.4267 280.821 26.08C280.101 25.7067 278.941 25.3067 277.341 24.88C275.687 24.48 274.327 24.0667 273.261 23.64C272.221 23.2133 271.314 22.56 270.541 21.68C269.794 20.8 269.421 19.6133 269.421 18.12C269.421 16.8933 269.767 15.7733 270.461 14.76C271.181 13.7467 272.194 12.9467 273.501 12.36C274.834 11.7733 276.394 11.48 278.181 11.48C280.821 11.48 282.927 12.1467 284.501 13.48C286.074 14.7867 286.941 16.56 287.101 18.8H281.741C281.661 17.92 281.287 17.2267 280.621 16.72C279.981 16.1867 279.114 15.92 278.021 15.92C277.007 15.92 276.221 16.1067 275.661 16.48C275.127 16.8533 274.861 17.3733 274.861 18.04C274.861 18.7867 275.234 19.36 275.981 19.76C276.727 20.1333 277.887 20.52 279.461 20.92C281.061 21.32 282.381 21.7333 283.421 22.16C284.461 22.5867 285.354 23.2533 286.101 24.16C286.874 25.04 287.274 26.2133 287.301 27.68C287.301 28.96 286.941 30.1067 286.221 31.12C285.527 32.1333 284.514 32.9333 283.181 33.52C281.874 34.08 280.341 34.36 278.581 34.36Z" fill="black"/>
<path d="M0 3C0 1.34315 1.34315 0 3 0H88.5C89.4443 0 90.3334 0.444583 90.9 1.2L103.65 18.2C104.45 19.2667 104.45 20.7333 103.65 21.8L90.9 38.8C90.3334 39.5554 89.4443 40 88.5 40H3C1.34315 40 0 38.6569 0 37V3Z" fill="#F7A526"/>
<path d="M31.312 31H26.832L16.688 15.672V31H12.208V8.632H16.688L26.832 23.992V8.632H31.312V31ZM51.8993 21.752C51.8993 22.392 51.8566 22.968 51.7713 23.48H38.8113C38.9179 24.76 39.3659 25.7627 40.1553 26.488C40.9446 27.2133 41.9153 27.576 43.0673 27.576C44.7313 27.576 45.9153 26.8613 46.6193 25.432H51.4513C50.9393 27.1387 49.9579 28.5467 48.5073 29.656C47.0566 30.744 45.2753 31.288 43.1633 31.288C41.4566 31.288 39.9206 30.9147 38.5553 30.168C37.2113 29.4 36.1553 28.3227 35.3873 26.936C34.6406 25.5493 34.2673 23.9493 34.2673 22.136C34.2673 20.3013 34.6406 18.6907 35.3873 17.304C36.1339 15.9173 37.1793 14.8507 38.5233 14.104C39.8673 13.3573 41.4139 12.984 43.1633 12.984C44.8486 12.984 46.3526 13.3467 47.6753 14.072C49.0193 14.7973 50.0539 15.832 50.7793 17.176C51.5259 18.4987 51.8993 20.024 51.8993 21.752ZM47.2593 20.472C47.2379 19.32 46.8219 18.4027 46.0113 17.72C45.2006 17.016 44.2086 16.664 43.0353 16.664C41.9259 16.664 40.9873 17.0053 40.2193 17.688C39.4726 18.3493 39.0139 19.2773 38.8433 20.472H47.2593ZM79.4253 13.272L74.2413 31H69.4093L66.1773 18.616L62.9453 31H58.0813L52.8653 13.272H57.4093L60.5453 26.776L63.9373 13.272H68.6733L72.0013 26.744L75.1373 13.272H79.4253Z" fill="black"/>
</svg>
