<svg width="86" height="86" viewBox="0 0 86 86" fill="none" xmlns="http://www.w3.org/2000/svg">
<circle cx="42.6032" cy="47.153" r="27.6032" fill="#FF9100"/>
<g filter="url(#filter0_b_1436_11)">
<path d="M41.8664 41.3288C42.2628 41.7615 42.9448 41.7615 43.3412 41.3288L68.6723 13.6753C69.2599 13.0338 68.8048 11.9998 67.9349 11.9998L17.2727 11.9998C16.4028 11.9998 15.9477 13.0338 16.5353 13.6753L41.8664 41.3288Z" fill="#5E44FF" fill-opacity="0.8"/>
</g>
<path d="M42.2445 32.823C42.3912 32.5257 42.8151 32.5257 42.9619 32.823L46.935 40.8735C46.9933 40.9916 47.1059 41.0734 47.2362 41.0923L56.1205 42.3833C56.4486 42.431 56.5796 42.8342 56.3422 43.0656L49.9135 49.332C49.8192 49.4239 49.7762 49.5563 49.7984 49.6861L51.316 58.5345C51.3721 58.8612 51.0291 59.1104 50.7357 58.9561L42.7893 54.7785C42.6728 54.7172 42.5336 54.7172 42.417 54.7785L34.4707 58.9561C34.1772 59.1104 33.8343 58.8612 33.8903 58.5345L35.4079 49.6861C35.4302 49.5563 35.3872 49.4239 35.2929 49.332L28.8642 43.0656C28.6268 42.8342 28.7578 42.431 29.0858 42.3833L37.9701 41.0923C38.1004 41.0734 38.213 40.9916 38.2713 40.8735L42.2445 32.823Z" fill="white"/>
<defs>
<filter id="filter0_b_1436_11" x="14.2705" y="10" width="56.666" height="33.6533" filterUnits="userSpaceOnUse" color-interpolation-filters="sRGB">
<feFlood flood-opacity="0" result="BackgroundImageFix"/>
<feGaussianBlur in="BackgroundImageFix" stdDeviation="1"/>
<feComposite in2="SourceAlpha" operator="in" result="effect1_backgroundBlur_1436_11"/>
<feBlend mode="normal" in="SourceGraphic" in2="effect1_backgroundBlur_1436_11" result="shape"/>
</filter>
</defs>
</svg>
