<svg width="86" height="86" viewBox="0 0 86 86" fill="none" xmlns="http://www.w3.org/2000/svg">
<circle cx="34.6032" cy="47.1315" r="27.6032" fill="#FF9100"/>
<g clip-path="url(#clip0_1436_12)">
<path d="M37.3918 32.0752V37.094H44.3623V42.1127H29.0272C28.6574 42.1127 28.3028 42.2449 28.0414 42.4802C27.7799 42.7155 27.633 43.0347 27.633 43.3674C27.6354 43.6639 27.7543 43.95 27.9686 44.175C28.183 44.4001 28.479 44.5496 28.8041 44.597H40.18C42.0287 44.597 43.8016 45.258 45.1089 46.4345C46.4161 47.611 47.1505 49.2067 47.1505 50.8705C47.1505 52.5343 46.4161 54.13 45.1089 55.3065C43.8016 56.483 42.0287 57.1439 40.18 57.1439H37.3918V62.1627H31.8154V57.169H24.8448V52.1503H40.18C40.5497 52.1503 40.9043 52.0181 41.1657 51.7828C41.4272 51.5475 41.5741 51.2283 41.5741 50.8956C41.5785 50.6014 41.4655 50.3156 41.2558 50.09C41.046 49.8644 40.7534 49.714 40.4309 49.666H29.0272C27.1785 49.666 25.4055 49.005 24.0983 47.8285C22.791 46.652 22.0566 45.0563 22.0566 43.3925C22.0566 41.7287 22.791 40.133 24.0983 38.9565C25.4055 37.78 27.1785 37.1191 29.0272 37.1191H31.8154V32.0752H37.3918Z" fill="white"/>
</g>
<g clip-path="url(#clip1_1436_12)">
<g filter="url(#filter0_b_1436_12)">
<path d="M58.444 12L75.6333 15.966C76.105 16.0761 76.5254 16.3522 76.8228 16.7473C77.1202 17.1425 77.2762 17.6322 77.2644 18.1332V39.8051C77.2675 41.9483 76.7594 44.059 75.7853 45.9495C74.8112 47.84 73.4013 49.4516 71.681 50.6411L58.444 59.6783L45.207 50.5327C43.4868 49.3433 42.0769 47.7316 41.1028 45.8411C40.1287 43.9506 39.6206 41.8399 39.6237 39.6968V18.0681C39.6119 17.5672 39.7679 17.0774 40.0653 16.6823C40.3627 16.2872 40.783 16.011 41.2548 15.901L58.444 12Z" fill="#5E44FF" fill-opacity="0.8"/>
</g>
<path d="M52.1699 33.4189L58.3803 39.6294L67.2523 30.7573" stroke="white" stroke-width="2" stroke-linecap="round" stroke-linejoin="round"/>
</g>
<defs>
<filter id="filter0_b_1436_12" x="37.623" y="10" width="41.6416" height="51.6782" filterUnits="userSpaceOnUse" color-interpolation-filters="sRGB">
<feFlood flood-opacity="0" result="BackgroundImageFix"/>
<feGaussianBlur in="BackgroundImageFix" stdDeviation="1"/>
<feComposite in2="SourceAlpha" operator="in" result="effect1_backgroundBlur_1436_12"/>
<feBlend mode="normal" in="SourceGraphic" in2="effect1_backgroundBlur_1436_12" result="shape"/>
</filter>
<clipPath id="clip0_1436_12">
<rect width="25.0938" height="30.1126" fill="white" transform="translate(22.0566 32.0752)"/>
</clipPath>
<clipPath id="clip1_1436_12">
<rect width="37.6408" height="47.6783" fill="white" transform="translate(39.623 12)"/>
</clipPath>
</defs>
</svg>
