<svg width="86" height="86" viewBox="0 0 86 86" fill="none" xmlns="http://www.w3.org/2000/svg">
<g clip-path="url(#clip0_1436_9)">
<path d="M64.0316 36.1071H72.3218L80.612 47.1607V63.6029H75.0852C74.7567 65.9084 73.6074 68.0179 71.8484 69.5441C70.0894 71.0702 67.8388 71.9104 65.51 71.9104C63.1812 71.9104 60.9307 71.0702 59.1717 69.5441C57.4127 68.0179 56.2633 65.9084 55.9348 63.6029H41.8415C41.513 65.9084 40.3637 68.0179 38.6047 69.5441C36.8457 71.0702 34.5951 71.9104 32.2663 71.9104C29.9375 71.9104 27.687 71.0702 25.928 69.5441C24.169 68.0179 23.0196 65.9084 22.6911 63.6029H19.9277V30.4421C19.9277 29.7092 20.2189 29.0063 20.7371 28.4881C21.2554 27.9699 21.9582 27.6787 22.6911 27.6787H61.3787C62.1116 27.6787 62.8145 27.9699 63.3328 28.4881C63.851 29.0063 64.1421 29.7092 64.1421 30.4421L64.0316 36.1071ZM64.0316 41.6339V49.9241H75.0852V49.2609L69.5584 41.7721L64.0316 41.6339Z" fill="#FF9100"/>
</g>
<g filter="url(#filter0_b_1436_9)">
<circle cx="29.4889" cy="37.4889" r="23.4889" fill="#5E44FF" fill-opacity="0.8"/>
</g>
<g clip-path="url(#clip1_1436_9)">
<path d="M30.9259 22.4282L19.8723 40.3074C19.8149 40.4067 19.7842 40.5191 19.7832 40.6337C19.7822 40.7483 19.811 40.8613 19.8667 40.9615C19.9223 41.0617 20.003 41.1458 20.1009 41.2055C20.1987 41.2652 20.3104 41.2985 20.4249 41.3023L28.4388 41.1641L26.4768 54.235C26.4548 54.2973 26.4585 54.3657 26.487 54.4253C26.5155 54.4849 26.5665 54.5308 26.6288 54.5528C26.6911 54.5747 26.7595 54.5711 26.8191 54.5426C26.8787 54.5141 26.9246 54.4631 26.9466 54.4008L38.6081 36.3005C38.6751 36.203 38.7135 36.0888 38.7191 35.9707C38.7247 35.8526 38.6973 35.7353 38.6398 35.6319C38.5824 35.5286 38.4973 35.4433 38.3941 35.3857C38.2908 35.328 38.1735 35.3003 38.0554 35.3057H29.7652L31.3404 22.594C31.3368 22.5477 31.3204 22.5033 31.2929 22.4658C31.2654 22.4283 31.2279 22.3993 31.1847 22.382C31.1416 22.3648 31.0945 22.36 31.0487 22.3681C31.0029 22.3763 30.9604 22.3971 30.9259 22.4282Z" fill="white"/>
</g>
<defs>
<filter id="filter0_b_1436_9" x="4" y="12" width="50.9775" height="50.978" filterUnits="userSpaceOnUse" color-interpolation-filters="sRGB">
<feFlood flood-opacity="0" result="BackgroundImageFix"/>
<feGaussianBlur in="BackgroundImageFix" stdDeviation="1"/>
<feComposite in2="SourceAlpha" operator="in" result="effect1_backgroundBlur_1436_9"/>
<feBlend mode="normal" in="SourceGraphic" in2="effect1_backgroundBlur_1436_9" result="shape"/>
</filter>
<clipPath id="clip0_1436_9">
<rect width="60.7948" height="44.2144" fill="white" transform="translate(19.8174 27.8169)"/>
</clipPath>
<clipPath id="clip1_1436_9">
<rect width="18.874" height="32.2212" fill="white" transform="translate(19.8174 22.29)"/>
</clipPath>
</defs>
</svg>
